# xmcd
#
# Track frame offsets:
#	150
#	19415
#	40129
#	59561
#	78464
#	92686
#	112536
#	133333
#	165722
#	182451
#	199515
#	217749
#	240664
#	256753
#	275182
#	290351
#	308223
#	330079
#
# Disc length: 4721 seconds
#
# Revision: 0
# Processed by: cddbd v1.5.1PL0 Copyright (c) Steve Scherf et al.
# Submitted via: dBpowerAMP V4.0
#
DISCID=f3126f12
DTITLE=R. Kelly - The "R." In R&B Collection Vol. 1
DYEAR=2003
DGENRE=Blues
TTITLE0=Bump n' Grind
TTITLE1=Your Body's Callin'
TTITLE2=Sex me (Part I)
TTITLE3=You Remind me of Something
TTITLE4=Ignition (Remix)
TTITLE5=Down Low (Nobody Has to Know) (Featuring Ronald/Ernie Isley)
TTITLE6=When a Woman's Fed Up
TTITLE7=Step in The Name of Love (Remix)
TTITLE8=Thoia Thoing
TTITLE9=Touched a Dream
TTITLE10=Fiesta (Remix, Featuring Jay-z/Boo and Gotti)
TTITLE11=I Wish
TTITLE12=Ghetto Religion (Featuring Wyclef Jean)
TTITLE13=Honey Love - Public Announcement
TTITLE14=She's Got That Vibe (With Public Announcement)
TTITLE15=The World's Greatest
TTITLE16=I'm Your Angel (With Celine Dion)
TTITLE17=I Believe I Can Fly
EXTD=
EXTT0=
EXTT1=
EXTT2=
EXTT3=
EXTT4=
EXTT5=
EXTT6=
EXTT7=
EXTT8=
EXTT9=
EXTT10=
EXTT11=
EXTT12=
EXTT13=
EXTT14=
EXTT15=
EXTT16=
EXTT17=
PLAYORDER=
